<?xml version="1.0" encoding="utf-8"?>
<!-- Generator: Adobe Illustrator 24.3.0, SVG Export Plug-In . SVG Version: 6.00 Build 0)  -->
<svg version="1.1" id="Layer_1" xmlns="http://www.w3.org/2000/svg" xmlns:xlink="http://www.w3.org/1999/xlink" x="0px" y="0px"
	 viewBox="0 0 512 512" style="enable-background:new 0 0 512 512;" xml:space="preserve">
<g>
	<path d="M28.44,284.44h170.67c15.69,0,28.44-12.72,28.44-28.44V28.44C227.56,12.72,214.81,0,199.11,0H28.44
		C12.72,0,0,12.72,0,28.44V256C0,271.72,12.72,284.44,28.44,284.44z M0,483.56C0,499.28,12.72,512,28.44,512h170.67
		c15.69,0,28.44-12.72,28.44-28.44V369.78c0-15.72-12.75-28.44-28.44-28.44H28.44C12.72,341.33,0,354.06,0,369.78V483.56z
		 M284.44,483.56c0,15.72,12.69,28.44,28.44,28.44h170.67c15.72,0,28.44-12.72,28.44-28.44V284.44c0-15.72-12.72-28.44-28.44-28.44
		H312.89c-15.75,0-28.44,12.72-28.44,28.44V483.56z M312.89,199.11h170.67c15.72,0,28.44-12.72,28.44-28.44V28.44
		C512,12.72,499.28,0,483.56,0H312.89c-15.75,0-28.44,12.72-28.44,28.44v142.22C284.44,186.39,297.14,199.11,312.89,199.11z"/>
</g>
</svg>
