<?xml version="1.0" encoding="utf-8"?>
<!-- Generator: Adobe Illustrator 24.1.1, SVG Export Plug-In . SVG Version: 6.00 Build 0)  -->
<svg version="1.1" id="Layer_1" xmlns="http://www.w3.org/2000/svg" xmlns:xlink="http://www.w3.org/1999/xlink" x="0px" y="0px"
	 viewBox="0 0 512 512" style="enable-background:new 0 0 512 512;" xml:space="preserve">
<g>
	<path d="M101.7,109.7C45.5,109.7,0,155.2,0,211.4s45.5,101.7,101.7,101.7c9.2,0,16.8-6.8,18.2-15.6h0.3V128.2
		C120.2,118,111.9,109.7,101.7,109.7z"/>
	<path d="M512,26.7c0-10.2-8.3-18.5-18.5-18.5c-4.2,0-8.1,1.5-11.2,3.9l-162.8,94H172.6c-10.2,0-18.5,8.3-18.5,18.5v175.7h0.2
		c1.1,9.1,8.8,16.2,18.3,16.2h130.3l178,102.8c3.3,3.1,7.7,5,12.6,5c10.2,0,18.5-8.3,18.5-18.5c0-0.7-0.1-1.4-0.2-2.1h0.2v-31.3
		V59.1V27.8h-0.1L512,26.7z"/>
	<path d="M298.3,457.3l-0.3-0.4l-0.2-0.5l-0.3-0.4L241,358l-0.2,0.1c-3.1-4.2-7.7-6.8-12.6-7.5v-0.2H179v0.1
		c-2.6,0.2-5.3,0.9-7.7,2.4c-8.9,5.1-11.9,16.4-6.8,25.3c0.4,0.8,1,1.4,1.5,2.1l-0.2,0.1l65.9,114.1l0,0l0,0l0.7,1.1l0.1-0.1
		c5.4,7.9,16,10.5,24.5,5.7c1-0.6,1.9-1.2,2.7-2l0.2,0.3l33.9-19.6l-0.2-0.3C300.1,474.4,302.1,465.1,298.3,457.3L298.3,457.3z"/>
</g>
</svg>
