<?xml version="1.0" encoding="utf-8"?>
<!-- Generator: Adobe Illustrator 27.2.0, SVG Export Plug-In . SVG Version: 6.00 Build 0)  -->
<svg version="1.1" id="Layer_1" xmlns="http://www.w3.org/2000/svg" xmlns:xlink="http://www.w3.org/1999/xlink" x="0px" y="0px"
	 viewBox="0 0 512 512" style="enable-background:new 0 0 512 512;" xml:space="preserve">
<g>
	<path d="M335.7,323.19c29.31,0,53.07,23.76,53.07,53.07v21.67c0,13.53-4.23,26.72-12.1,37.73
		C340.19,486.71,280.62,512,199.91,512c-80.73,0-140.27-25.3-176.66-76.38c-7.83-10.99-12.04-24.16-12.04-37.66v-21.71
		c0-29.31,23.76-53.07,53.07-53.07H335.7z M437.17,2.34c8.49-4.85,19.3-1.9,24.15,6.59C487.05,53.96,500.79,105,500.79,158
		c0,53.18-13.83,104.39-39.73,149.53c-4.86,8.48-15.68,11.41-24.16,6.54c-8.48-4.86-11.41-15.68-6.54-24.16
		c22.85-39.82,35.04-84.96,35.04-131.91c0-46.8-12.11-91.79-34.81-131.52C425.73,18,428.68,7.19,437.17,2.34z M199.91,40.12
		c65.17,0,117.99,52.83,117.99,117.99S265.08,276.1,199.91,276.1c-65.16,0-117.99-52.83-117.99-117.99S134.75,40.12,199.91,40.12z
		 M355.39,49.43c8.5-4.83,19.3-1.86,24.13,6.64C397.05,86.89,406.4,121.79,406.4,158c0,36.3-9.39,71.27-26.99,102.14
		c-4.84,8.49-15.65,11.45-24.14,6.61c-8.49-4.84-11.45-15.65-6.61-24.14C363.23,217.04,371,188.11,371,158
		c0-30.04-7.74-58.91-22.25-84.43C343.92,65.07,346.89,54.27,355.39,49.43z"/>
</g>
</svg>
