<?xml version="1.0" encoding="utf-8"?>
<!-- Generator: Adobe Illustrator 27.5.0, SVG Export Plug-In . SVG Version: 6.00 Build 0)  -->
<svg version="1.1" id="Layer_1" xmlns="http://www.w3.org/2000/svg" xmlns:xlink="http://www.w3.org/1999/xlink" x="0px" y="0px"
	 viewBox="0 0 512 512" style="enable-background:new 0 0 512 512;" xml:space="preserve">
<g>
	<path d="M256,51.2c14.16,0,25.6,11.44,25.6,25.6V128h96c31.84,0,57.6,25.76,57.6,57.6v217.6c0,31.84-25.76,57.6-57.6,57.6H134.4
		c-31.84,0-57.6-25.76-57.6-57.6V185.6c0-31.84,25.76-57.6,57.6-57.6h96V76.8C230.4,62.64,241.84,51.2,256,51.2z M166.4,358.4
		c-7.04,0-12.8,5.76-12.8,12.8c0,7.04,5.76,12.8,12.8,12.8H192c7.04,0,12.8-5.76,12.8-12.8c0-7.04-5.76-12.8-12.8-12.8H166.4z
		 M243.2,358.4c-7.04,0-12.8,5.76-12.8,12.8c0,7.04,5.76,12.8,12.8,12.8h25.6c7.04,0,12.8-5.76,12.8-12.8
		c0-7.04-5.76-12.8-12.8-12.8H243.2z M320,358.4c-7.04,0-12.8,5.76-12.8,12.8c0,7.04,5.76,12.8,12.8,12.8h25.6
		c7.04,0,12.8-5.76,12.8-12.8c0-7.04-5.76-12.8-12.8-12.8H320z M211.2,256c0-17.67-14.33-32-32-32s-32,14.33-32,32
		c0,17.67,14.33,32,32,32S211.2,273.67,211.2,256z M332.8,288c17.67,0,32-14.33,32-32c0-17.67-14.33-32-32-32
		c-17.67,0-32,14.33-32,32C300.8,273.67,315.13,288,332.8,288z M38.4,230.4h12.8V384H38.4C17.2,384,0,366.8,0,345.6v-76.8
		C0,247.6,17.2,230.4,38.4,230.4z M473.6,230.4c21.2,0,38.4,17.2,38.4,38.4v76.8c0,21.2-17.2,38.4-38.4,38.4h-12.8V230.4H473.6z"/>
</g>
</svg>
