<?xml version="1.0" encoding="utf-8"?>
<!-- Generator: Adobe Illustrator 24.1.1, SVG Export Plug-In . SVG Version: 6.00 Build 0)  -->
<svg version="1.1" id="Layer_1" xmlns="http://www.w3.org/2000/svg" xmlns:xlink="http://www.w3.org/1999/xlink" x="0px" y="0px"
	 viewBox="0 0 512 512" style="enable-background:new 0 0 512 512;" xml:space="preserve">
<g>
	<path d="M405.67,76.84H106.35C47.6,76.84,0,123.92,0,182.02v147.97c0,58.07,47.63,105.2,106.35,105.2h299.32
		c58.75,0,106.33-47.13,106.33-105.2V182.02c0-58.1-47.6-105.2-106.33-105.2V76.84z M333.77,263.19l-140,66.04
		c-2.81,1.35-6.16,0.18-7.52-2.61l-0.55-2.41V188c0-4.13,4.43-6.81,8.17-4.94l140.03,70.15c2.73,1.38,3.86,4.71,2.48,7.44
		l-2.61,2.56V263.19z"/>
</g>
</svg>
