<?xml version="1.0" encoding="UTF-8"?>
<svg id="Capa_2" data-name="Capa 2" xmlns="http://www.w3.org/2000/svg" viewBox="0 0 607.13 523.93">
  <defs>
    <style>
      .cls-1 {
        fill: #e8e8e8;
      }
    </style>
  </defs>
  <g id="Capa_1-2" data-name="Capa 1">
    <g>
      <path class="cls-1" d="M412.55,17.53c-4.06-10.56-14.2-17.53-25.51-17.53h-185.69l-.23.57,79.73,207.46s0,.05.02.09c.66,3.31,4.16,22.81-8.98,40.42-12.23,16.41-30.03,19.33-33.45,19.83h-121.46c-11.31,0-21.46,6.97-25.51,17.53L0,523.93h204.93l77.56-201.82c3.56-7.38,11.97-22.46,28.68-35.1,1.71-1.33,3.54-2.61,5.44-3.84,16-10.42,31.4-13.64,40.08-14.78h152.26L412.55,17.53Z"/>
      <path class="cls-1" d="M607.13,523.93h-204.93l-23.47-61.08c-18.53-49.04,6.47-104.64,55.35-123.28,48.72-18.58,104.22,5.99,123.21,54.68l49.84,129.68Z"/>
    </g>
  </g>
</svg>